<mxfile host="app.diagrams.net" modified="2022-08-26T08:13:32.288Z" agent="5.0 (Macintosh; Intel Mac OS X 10_15_7) AppleWebKit/537.36 (KHTML, like Gecko) Chrome/104.0.0.0 Safari/537.36" etag="5tWjTPBZIkztk0JCvVEi" version="20.2.7" type="github">
  <diagram name="Page-1" id="74b105a0-9070-1c63-61bc-23e55f88626e">
    <mxGraphModel dx="1018" dy="690" grid="1" gridSize="10" guides="1" tooltips="1" connect="1" arrows="1" fold="1" page="1" pageScale="1.5" pageWidth="1169" pageHeight="826" background="none" math="0" shadow="0">
      <root>
        <mxCell id="0" style=";html=1;" />
        <mxCell id="1" style=";html=1;" parent="0" />
        <mxCell id="As6_-akMceIniI_f1IH2-17" value="a" style="rounded=1;whiteSpace=wrap;html=1;strokeColor=#FF6BA1;" vertex="1" parent="1">
          <mxGeometry x="100" y="280" width="50" height="50" as="geometry" />
        </mxCell>
        <mxCell id="As6_-akMceIniI_f1IH2-44" value="" style="edgeStyle=none;rounded=0;orthogonalLoop=1;jettySize=auto;html=1;fontSize=15;strokeWidth=1;" edge="1" parent="1" source="As6_-akMceIniI_f1IH2-18" target="As6_-akMceIniI_f1IH2-17">
          <mxGeometry relative="1" as="geometry" />
        </mxCell>
        <mxCell id="As6_-akMceIniI_f1IH2-18" value="b" style="rounded=1;whiteSpace=wrap;html=1;strokeColor=#FF6BA1;" vertex="1" parent="1">
          <mxGeometry x="210" y="280" width="50" height="50" as="geometry" />
        </mxCell>
        <mxCell id="As6_-akMceIniI_f1IH2-43" value="" style="edgeStyle=none;rounded=0;orthogonalLoop=1;jettySize=auto;html=1;fontSize=15;strokeWidth=1;" edge="1" parent="1" source="As6_-akMceIniI_f1IH2-19" target="As6_-akMceIniI_f1IH2-18">
          <mxGeometry relative="1" as="geometry" />
        </mxCell>
        <mxCell id="As6_-akMceIniI_f1IH2-19" value="&lt;b&gt;A&lt;/b&gt;" style="rounded=1;whiteSpace=wrap;html=1;strokeColor=#FF6BA1;" vertex="1" parent="1">
          <mxGeometry x="330" y="280" width="50" height="50" as="geometry" />
        </mxCell>
        <mxCell id="As6_-akMceIniI_f1IH2-42" value="" style="edgeStyle=none;rounded=0;orthogonalLoop=1;jettySize=auto;html=1;fontSize=15;strokeWidth=1;entryX=1;entryY=0.5;entryDx=0;entryDy=0;" edge="1" parent="1" source="As6_-akMceIniI_f1IH2-20" target="As6_-akMceIniI_f1IH2-19">
          <mxGeometry relative="1" as="geometry" />
        </mxCell>
        <mxCell id="As6_-akMceIniI_f1IH2-20" value="B" style="rounded=1;whiteSpace=wrap;html=1;strokeColor=#FF6BA1;" vertex="1" parent="1">
          <mxGeometry x="450" y="280" width="50" height="50" as="geometry" />
        </mxCell>
        <mxCell id="As6_-akMceIniI_f1IH2-40" value="" style="edgeStyle=none;rounded=0;orthogonalLoop=1;jettySize=auto;html=1;fontSize=15;strokeWidth=1;" edge="1" parent="1" source="As6_-akMceIniI_f1IH2-21" target="As6_-akMceIniI_f1IH2-20">
          <mxGeometry relative="1" as="geometry" />
        </mxCell>
        <mxCell id="As6_-akMceIniI_f1IH2-21" value="C" style="rounded=1;whiteSpace=wrap;html=1;strokeColor=#FF6BA1;" vertex="1" parent="1">
          <mxGeometry x="570" y="280" width="50" height="50" as="geometry" />
        </mxCell>
        <mxCell id="As6_-akMceIniI_f1IH2-45" style="edgeStyle=none;rounded=0;orthogonalLoop=1;jettySize=auto;html=1;exitX=0;exitY=0.5;exitDx=0;exitDy=0;fontSize=15;strokeWidth=1;entryX=1;entryY=0.25;entryDx=0;entryDy=0;" edge="1" parent="1" source="As6_-akMceIniI_f1IH2-22" target="As6_-akMceIniI_f1IH2-17">
          <mxGeometry relative="1" as="geometry">
            <mxPoint x="150" y="310" as="targetPoint" />
          </mxGeometry>
        </mxCell>
        <mxCell id="As6_-akMceIniI_f1IH2-22" value="D" style="rounded=1;whiteSpace=wrap;html=1;strokeColor=#FF6BA1;" vertex="1" parent="1">
          <mxGeometry x="210" y="170" width="50" height="50" as="geometry" />
        </mxCell>
        <mxCell id="As6_-akMceIniI_f1IH2-46" value="" style="edgeStyle=none;rounded=0;orthogonalLoop=1;jettySize=auto;html=1;fontSize=15;strokeWidth=1;" edge="1" parent="1" source="As6_-akMceIniI_f1IH2-23" target="As6_-akMceIniI_f1IH2-22">
          <mxGeometry relative="1" as="geometry" />
        </mxCell>
        <mxCell id="As6_-akMceIniI_f1IH2-23" value="E" style="rounded=1;whiteSpace=wrap;html=1;strokeColor=#FF6BA1;" vertex="1" parent="1">
          <mxGeometry x="330" y="170" width="50" height="50" as="geometry" />
        </mxCell>
        <mxCell id="As6_-akMceIniI_f1IH2-47" value="" style="edgeStyle=none;rounded=0;orthogonalLoop=1;jettySize=auto;html=1;fontSize=15;strokeWidth=1;" edge="1" parent="1" source="As6_-akMceIniI_f1IH2-24" target="As6_-akMceIniI_f1IH2-23">
          <mxGeometry relative="1" as="geometry" />
        </mxCell>
        <mxCell id="As6_-akMceIniI_f1IH2-24" value="F" style="rounded=1;whiteSpace=wrap;html=1;strokeColor=#FF6BA1;" vertex="1" parent="1">
          <mxGeometry x="450" y="170" width="50" height="50" as="geometry" />
        </mxCell>
        <mxCell id="As6_-akMceIniI_f1IH2-48" value="" style="edgeStyle=none;rounded=0;orthogonalLoop=1;jettySize=auto;html=1;fontSize=15;strokeWidth=1;" edge="1" parent="1" source="As6_-akMceIniI_f1IH2-25" target="As6_-akMceIniI_f1IH2-24">
          <mxGeometry relative="1" as="geometry" />
        </mxCell>
        <mxCell id="As6_-akMceIniI_f1IH2-25" value="G" style="rounded=1;whiteSpace=wrap;html=1;strokeColor=#FF6BA1;" vertex="1" parent="1">
          <mxGeometry x="570" y="170" width="50" height="50" as="geometry" />
        </mxCell>
        <mxCell id="As6_-akMceIniI_f1IH2-26" value="from" style="text;strokeColor=none;fillColor=none;align=center;verticalAlign=middle;spacingLeft=4;spacingRight=4;overflow=hidden;points=[[0,0.5],[1,0.5]];portConstraint=eastwest;rotatable=0;fontStyle=1;fontSize=15;" vertex="1" parent="1">
          <mxGeometry x="315" y="350" width="80" height="30" as="geometry" />
        </mxCell>
        <mxCell id="As6_-akMceIniI_f1IH2-27" value="" style="endArrow=none;dashed=1;html=1;rounded=0;fontSize=15;entryX=0.5;entryY=1.1;entryDx=0;entryDy=0;entryPerimeter=0;strokeWidth=3;dashPattern=1 1;" edge="1" parent="1" target="As6_-akMceIniI_f1IH2-26">
          <mxGeometry width="50" height="50" relative="1" as="geometry">
            <mxPoint x="355" y="560" as="sourcePoint" />
            <mxPoint x="420" y="410" as="targetPoint" />
          </mxGeometry>
        </mxCell>
        <mxCell id="As6_-akMceIniI_f1IH2-34" value="A, B, C, D, E, F, G" style="text;strokeColor=none;fillColor=none;align=center;verticalAlign=middle;spacingLeft=4;spacingRight=4;overflow=hidden;points=[[0,0.5],[1,0.5]];portConstraint=eastwest;rotatable=0;fontSize=15;fontStyle=1" vertex="1" parent="1">
          <mxGeometry x="560" y="425" width="150" height="50" as="geometry" />
        </mxCell>
        <mxCell id="As6_-akMceIniI_f1IH2-35" value="" style="shape=curlyBracket;whiteSpace=wrap;html=1;rounded=1;fontSize=15;strokeColor=#FF6BA1;" vertex="1" parent="1">
          <mxGeometry x="540" y="420" width="20" height="60" as="geometry" />
        </mxCell>
        <mxCell id="As6_-akMceIniI_f1IH2-36" value="" style="shape=curlyBracket;whiteSpace=wrap;html=1;rounded=1;flipH=1;fontSize=15;strokeColor=#FF6BA1;" vertex="1" parent="1">
          <mxGeometry x="710" y="420" width="20" height="60" as="geometry" />
        </mxCell>
        <mxCell id="As6_-akMceIniI_f1IH2-37" value="" style="edgeStyle=none;html=1;strokeColor=#808080;endArrow=block;endSize=10;dashed=0;verticalAlign=bottom;strokeWidth=2;rounded=0;dashPattern=1 1;fontSize=15;" edge="1" parent="1">
          <mxGeometry width="160" relative="1" as="geometry">
            <mxPoint x="360" y="510" as="sourcePoint" />
            <mxPoint x="670" y="510" as="targetPoint" />
          </mxGeometry>
        </mxCell>
        <mxCell id="As6_-akMceIniI_f1IH2-51" value="" style="endArrow=none;dashed=1;html=1;rounded=0;fontSize=15;strokeWidth=1;" edge="1" parent="1">
          <mxGeometry width="50" height="50" relative="1" as="geometry">
            <mxPoint x="170" y="250" as="sourcePoint" />
            <mxPoint x="170" y="140" as="targetPoint" />
          </mxGeometry>
        </mxCell>
        <mxCell id="As6_-akMceIniI_f1IH2-52" value="" style="endArrow=none;dashed=1;html=1;rounded=0;fontSize=15;strokeWidth=1;" edge="1" parent="1">
          <mxGeometry width="50" height="50" relative="1" as="geometry">
            <mxPoint x="170" y="250" as="sourcePoint" />
            <mxPoint x="300" y="250" as="targetPoint" />
          </mxGeometry>
        </mxCell>
        <mxCell id="As6_-akMceIniI_f1IH2-53" value="" style="endArrow=none;dashed=1;html=1;rounded=0;fontSize=15;strokeWidth=1;" edge="1" parent="1">
          <mxGeometry width="50" height="50" relative="1" as="geometry">
            <mxPoint x="300" y="350" as="sourcePoint" />
            <mxPoint x="300" y="250" as="targetPoint" />
          </mxGeometry>
        </mxCell>
        <mxCell id="As6_-akMceIniI_f1IH2-54" value="" style="endArrow=none;dashed=1;html=1;rounded=0;fontSize=15;strokeWidth=1;" edge="1" parent="1">
          <mxGeometry width="50" height="50" relative="1" as="geometry">
            <mxPoint x="300" y="350" as="sourcePoint" />
            <mxPoint x="640" y="350" as="targetPoint" />
          </mxGeometry>
        </mxCell>
        <mxCell id="As6_-akMceIniI_f1IH2-55" value="" style="endArrow=none;dashed=1;html=1;rounded=0;fontSize=15;strokeWidth=1;" edge="1" parent="1">
          <mxGeometry width="50" height="50" relative="1" as="geometry">
            <mxPoint x="640" y="140" as="sourcePoint" />
            <mxPoint x="640" y="350" as="targetPoint" />
          </mxGeometry>
        </mxCell>
        <mxCell id="As6_-akMceIniI_f1IH2-56" value="" style="endArrow=none;dashed=1;html=1;rounded=0;fontSize=15;strokeWidth=1;" edge="1" parent="1">
          <mxGeometry width="50" height="50" relative="1" as="geometry">
            <mxPoint x="170" y="140" as="sourcePoint" />
            <mxPoint x="640" y="140" as="targetPoint" />
          </mxGeometry>
        </mxCell>
        <mxCell id="As6_-akMceIniI_f1IH2-57" value="Return:" style="text;strokeColor=none;fillColor=none;align=center;verticalAlign=middle;spacingLeft=4;spacingRight=4;overflow=hidden;points=[[0,0.5],[1,0.5]];portConstraint=eastwest;rotatable=0;fontStyle=1;fontSize=15;" vertex="1" parent="1">
          <mxGeometry x="435" y="435" width="80" height="30" as="geometry" />
        </mxCell>
      </root>
    </mxGraphModel>
  </diagram>
</mxfile>
